<svg width="230.419" height="39.201" xmlns="http://www.w3.org/2000/svg">
 <g>
  <title>Layer 1</title>
  <path class="a" d="m50.829,10.18101l6.515,0c2.4,0 6.007,0.7 6.007,4.811a4.178,4.178 0 0 1 -3.711,4.191l0,0.052a4.345,4.345 0 0 1 4.271,4.275c0,4.73 -4.219,5.428 -6.568,5.428l-6.515,0l0.001,-18.757zm3.738,7.578l1.523,0c1.575,0 3.523,-0.35 3.523,-2.284c0,-2.177 -1.9,-2.339 -3.6,-2.339l-1.443,0l-0.003,4.623zm0,8.223l1.764,0c1.735,0 3.843,-0.43 3.843,-2.609c0,-2.445 -1.973,-2.82 -3.843,-2.82l-1.761,0l-0.003,5.429z" fill="#ffffff" id="svg_1"/>
  <path class="a" d="m67.436,16.314a12.621,12.621 0 0 1 4.781,-1.008c4.19,0 5.926,1.681 5.926,5.613l0,1.709c0,1.345 0.029,2.354 0.054,3.336c0.027,1.009 0.081,1.942 0.16,2.975l-3.148,0a16.344,16.344 0 0 1 -0.159,-1.99l-0.053,0a4.945,4.945 0 0 1 -4.244,2.3c-2.431,0 -4.807,-1.424 -4.807,-3.96a3.907,3.907 0 0 1 2.348,-3.8a11.229,11.229 0 0 1 4.621,-0.775l1.974,0c0,-2.146 -0.986,-2.872 -3.1,-2.872a7.339,7.339 0 0 0 -4.244,1.45l-0.109,-2.978zm4.194,10.4a3.065,3.065 0 0 0 2.509,-1.192a4.307,4.307 0 0 0 0.746,-2.74l-1.548,0c-1.6,0 -3.977,0.259 -3.977,2.3c0,1.138 0.988,1.63 2.269,1.63" fill="#ffffff" id="svg_2"/>
  <path class="a" d="m81.665,15.61601l3.391,0l0,1.812l0.052,0a5.2,5.2 0 0 1 4.512,-2.122c3.258,0 4.672,2.226 4.672,5.225l0,8.409l-3.577,0l0,-7.114c0,-1.63 -0.027,-3.829 -2.322,-3.829c-2.591,0 -3.151,2.716 -3.151,4.423l0,6.52l-3.577,0l0,-13.324z" fill="#ffffff" id="svg_3"/>
  <path class="a" d="m106.70399,18.488a5.534,5.534 0 0 0 -2.43,-0.491c-2.217,0 -3.63,1.706 -3.63,4.217c0,2.456 1.2,4.345 3.71,4.345a7.751,7.751 0 0 0 2.75,-0.621l0.161,2.873a11.969,11.969 0 0 1 -3.577,0.441c-4.514,0 -6.783,-2.977 -6.783,-7.038c0,-3.856 2.35,-6.908 6.648,-6.908a12.063,12.063 0 0 1 3.471,0.438l-0.32,2.744z" fill="#ffffff" id="svg_4"/>
  <path class="a" d="m115.68101,15.306c4.083,0 7.206,2.663 7.206,7.062c0,3.83 -2.642,6.884 -7.206,6.884c-4.539,0 -7.183,-3.054 -7.183,-6.884c0,-4.4 3.122,-7.062 7.183,-7.062m0,11.253c2.749,0 3.47,-2.379 3.47,-4.605c0,-2.043 -1.121,-3.957 -3.47,-3.957c-2.325,0 -3.446,1.966 -3.446,3.957c0,2.2 0.723,4.605 3.446,4.605" fill="#ffffff" id="svg_5"/>
  <path class="a" d="m171.8289,13.0819a9.553,9.553 0 0 0 -3.791,-0.807c-1.28,0 -2.936,0.565 -2.936,2.607c0,3.251 8.171,1.882 8.171,8.171c0,4.11 -3.232,5.671 -7,5.671a16.324,16.324 0 0 1 -4.777,-0.727l0.346,-3.388a8.927,8.927 0 0 0 4.216,1.151c1.416,0 3.312,-0.726 3.312,-2.419c0,-3.573 -8.17,-2.095 -8.17,-8.3c0,-4.192 3.23,-5.724 6.516,-5.724a13.985,13.985 0 0 1 4.457,0.672l-0.344,3.093z" fill="#ffffff" id="svg_6"/>
  <path class="a" d="m176.51491,15.84888a12.606,12.606 0 0 1 4.779,-1.008c4.193,0 5.928,1.681 5.928,5.613l0,1.709c0,1.345 0.025,2.354 0.053,3.336c0.025,1.009 0.079,1.942 0.16,2.975l-3.151,0a15.614,15.614 0 0 1 -0.159,-1.99l-0.053,0a4.949,4.949 0 0 1 -4.247,2.3c-2.428,0 -4.806,-1.424 -4.806,-3.96a3.908,3.908 0 0 1 2.35,-3.8a11.215,11.215 0 0 1 4.618,-0.775l1.976,0c0,-2.146 -0.989,-2.872 -3.1,-2.872a7.349,7.349 0 0 0 -4.247,1.45l-0.101,-2.978zm4.191,10.4a3.067,3.067 0 0 0 2.511,-1.192a4.31,4.31 0 0 0 0.746,-2.74l-1.549,0c-1.6,0 -3.978,0.259 -3.978,2.3c0,1.138 0.988,1.63 2.269,1.63" fill="#ffffff" id="svg_7"/>
  <path class="a" d="m190.7469,15.15089l3.39,0l0,1.812l0.055,0a5.2,5.2 0 0 1 4.512,-2.122c3.259,0 4.674,2.226 4.674,5.225l0,8.409l-3.577,0l0,-7.114c0,-1.63 -0.028,-3.829 -2.323,-3.829c-2.59,0 -3.151,2.716 -3.151,4.423l0,6.52l-3.577,0l-0.003,-13.324z" fill="#ffffff" id="svg_8"/>
  <path class="a" d="m208.23291,17.6859l-2.641,0l0,-2.534l2.641,0l0,-2.666l3.58,-1.112l0,3.778l3.175,0l0,2.534l-3.175,0l0,6.211c0,1.139 0.319,2.2 1.68,2.2a3.285,3.285 0 0 0 1.631,-0.361l0.105,2.742a9.66,9.66 0 0 1 -2.643,0.312a3.981,3.981 0 0 1 -4.354,-4.322l0.001,-6.782z" fill="#ffffff" id="svg_9"/>
  <path class="a" d="m218.05689,15.84888a12.6,12.6 0 0 1 4.777,-1.008c4.194,0 5.93,1.681 5.93,5.613l0,1.709c0,1.345 0.024,2.354 0.053,3.336c0.026,1.009 0.08,1.942 0.159,2.975l-3.147,0a15.737,15.737 0 0 1 -0.161,-1.99l-0.055,0a4.945,4.945 0 0 1 -4.243,2.3c-2.433,0 -4.808,-1.424 -4.808,-3.96a3.9,3.9 0 0 1 2.351,-3.8a11.209,11.209 0 0 1 4.617,-0.775l1.977,0c0,-2.146 -0.988,-2.872 -3.1,-2.872a7.351,7.351 0 0 0 -4.247,1.45l-0.103,-2.978zm4.191,10.4a3.066,3.066 0 0 0 2.511,-1.192a4.3,4.3 0 0 0 0.748,-2.74l-1.55,0c-1.6,0 -3.978,0.259 -3.978,2.3c0,1.138 0.988,1.63 2.269,1.63" fill="#ffffff" id="svg_10"/>
  <path class="a" d="m130.68427,9.64088l10.361,0l0,2.959l-6.622,0l0,4.622l6.3,0l0,2.957l-6.3,0l0,8.221l-3.739,0l0,-18.759z" fill="#ffffff" id="svg_11"/>
  <path class="a" d="m154.52029,27.72489a9.711,9.711 0 0 1 -4.727,1.062c-4.538,0 -7.181,-2.537 -7.181,-6.91c0,-3.854 2.109,-7.036 6.382,-7.036c5.1,0 6.541,3.39 6.541,8.046l-9.503,0c0.162,2.148 1.711,3.364 3.927,3.364a9.461,9.461 0 0 0 4.564,-1.347l-0.003,2.821zm-2.4,-7.219c-0.108,-1.68 -0.908,-3.131 -2.912,-3.131a3.07,3.07 0 0 0 -3.176,3.131l6.088,0z" fill="#ffffff" id="svg_12"/>
  <path class="b" d="m19.335,21.71301l0,13.105l1.847,0l0,-13.105l10.164,9.732a11.8,11.8 0 0 1 -22.178,0q5.085,-4.864 10.166,-9.732" fill="#00964c" id="svg_13"/>
  <path class="b" d="m19.23501,19.60101q-5.419,5.107 -10.839,10.215l-7,-0.813a32.365,32.365 0 0 1 0,-18.8l7,-0.813q5.422,5.108 10.839,10.215" fill="#00964c" id="svg_14"/>
  <path class="b" d="m21.281,19.60101l10.838,-10.215l7,0.813a32.421,32.421 0 0 1 0,18.8l-7,0.813l-10.838,-10.215" fill="#00964c" id="svg_15"/>
  <path class="b" d="m9.169,7.75699a11.8,11.8 0 0 1 22.178,0q-5.079,4.865 -10.164,9.73l0,-10.737c0.312,-0.3 0.624,-0.6 0.936,-0.9a0.3,0.3 0 0 0 0,-0.459c-0.3,-0.289 -0.6,-0.579 -0.906,-0.869q-0.224,-0.218 -0.451,-0.433c-0.087,-0.084 -0.172,-0.171 -0.261,-0.253l-0.027,-0.021a0.361,0.361 0 0 0 -0.063,-0.037a0.351,0.351 0 0 0 -0.152,-0.036a0.35,0.35 0 0 0 -0.215,0.073a0.308,0.308 0 0 0 -0.027,0.021c-0.09,0.082 -0.175,0.169 -0.263,0.253l-0.451,0.433c-0.3,0.289 -0.6,0.579 -0.905,0.869a0.307,0.307 0 0 0 0,0.459c0.313,0.3 0.625,0.6 0.936,0.9l0,10.737q-5.084,-4.865 -10.166,-9.73" fill="#00964c" id="svg_16"/>
 </g>

</svg>